<svg width="18" height="18" viewBox="0 0 18 18" fill="none" xmlns="http://www.w3.org/2000/svg">
<g id="bell-02">
<path id="Icon" d="M10.5 15.75H7.49998M13.5 6C13.5 4.80653 13.0259 3.66193 12.182 2.81802C11.3381 1.97411 10.1935 1.5 8.99998 1.5C7.80651 1.5 6.66192 1.97411 5.818 2.81802C4.97409 3.66193 4.49998 4.80653 4.49998 6C4.49998 8.31764 3.91534 9.90447 3.26223 10.9541C2.71133 11.8394 2.43588 12.2821 2.44598 12.4056C2.45716 12.5423 2.48613 12.5944 2.59632 12.6762C2.69583 12.75 3.14443 12.75 4.04162 12.75H13.9583C14.8555 12.75 15.3041 12.75 15.4037 12.6762C15.5138 12.5944 15.5428 12.5423 15.554 12.4056C15.5641 12.2821 15.2886 11.8394 14.7377 10.9541C14.0846 9.90447 13.5 8.31764 13.5 6Z" stroke="white" stroke-width="1.5" stroke-linecap="round" stroke-linejoin="round"/>
</g>
</svg>
