<svg width="20" height="20" viewBox="0 0 20 20" fill="none" xmlns="http://www.w3.org/2000/svg">
<g id="Group">
<path id="Vector" d="M0.445351 0.445351C1.03913 -0.148425 2.00189 -0.14845 2.59569 0.445351L9.76347 7.61314L16.9312 0.445351C17.525 -0.148445 18.4878 -0.148456 19.0816 0.445351C19.6754 1.03913 19.6754 2.00187 19.0816 2.59567L11.9138 9.76346L19.0816 16.9312C19.6754 17.525 19.6754 18.4878 19.0816 19.0816C18.4878 19.6754 17.525 19.6754 16.9312 19.0816L9.76346 11.9138L2.59569 19.0816C2.00189 19.6754 1.03914 19.6754 0.445356 19.0816C-0.148456 18.4878 -0.148446 17.525 0.445356 16.9312L7.61314 9.76346L0.445356 2.59567C-0.148441 2.00188 -0.148461 1.03917 0.445351 0.445351Z" fill="white"/>
</g>
</svg>
