<svg width="62" height="62" viewBox="0 0 62 62" fill="none" xmlns="http://www.w3.org/2000/svg">
<g id="Group 1">
<circle id="Ellipse 1" cx="31" cy="31" r="30" stroke="#FDDA72" stroke-width="2"/>
<g id="Group">
<g id="Icon">
<path d="M27.5353 19.142L33.7548 19C36.0308 19 35.9808 19 38.0551 19.1451C39.6975 19.2599 40.1795 19.7933 40.2243 20.6479C40.2776 21.6639 40.2776 22.9123 40.2776 25.1804V43L30.7949 37.6001L21.7552 43L21.7552 34.1131V25.1804V20.9119C21.7552 20.9119 21.7329 19.9779 22.4976 19.5896C23.0938 18.9934 25.2592 19.142 27.5353 19.142Z" fill="#FDDA72"/>
<path d="M21.7552 25.1804C21.7552 22.9579 21.7552 20.9119 21.7552 20.9119M21.7552 25.1804V34.1131L21.7552 43L30.7949 37.6001L40.2776 43V25.1804C40.2776 22.9123 40.2776 21.6639 40.2243 20.6479C40.1795 19.7933 39.6975 19.2599 38.0551 19.1451C35.9808 19 36.0308 19 33.7548 19L27.5353 19.142C25.2592 19.142 23.0938 18.9934 22.4976 19.5896C21.7329 19.9779 21.7552 20.9119 21.7552 20.9119M21.7552 25.1804V20.9119" stroke="#FDDA72" stroke-width="2.5277" stroke-linecap="round" stroke-linejoin="round"/>
</g>
</g>
</g>
</svg>
