<svg width="17" height="17" viewBox="0 0 17 17" fill="none" xmlns="http://www.w3.org/2000/svg">
<path id="Icon" d="M7.9292 1.68521C8.1126 1.29677 8.20429 1.10255 8.32878 1.04049C8.43709 0.986502 8.56292 0.986502 8.67122 1.04049C8.79571 1.10255 8.88741 1.29677 9.0708 1.68521L10.8107 5.37048C10.8649 5.48516 10.8919 5.5425 10.9315 5.58702C10.9665 5.62643 11.0085 5.65837 11.0552 5.68106C11.1079 5.70668 11.1684 5.71593 11.2895 5.73443L15.1814 6.32917C15.5912 6.3918 15.7961 6.42312 15.891 6.52777C15.9735 6.61883 16.0123 6.74395 15.9966 6.8683C15.9785 7.01122 15.8302 7.1623 15.5335 7.46444L12.7183 10.3312C12.6305 10.4205 12.5867 10.4652 12.5583 10.5184C12.5333 10.5655 12.5172 10.6172 12.511 10.6707C12.504 10.7311 12.5143 10.7942 12.535 10.9204L13.1993 14.9696C13.2694 15.3967 13.3044 15.6102 13.2385 15.7369C13.1813 15.8472 13.0795 15.9245 12.9615 15.9474C12.8258 15.9736 12.6424 15.8728 12.2756 15.6711L8.79628 13.7581C8.68788 13.6985 8.63367 13.6687 8.57657 13.657C8.526 13.6466 8.474 13.6466 8.42344 13.657C8.36633 13.6687 8.31213 13.6985 8.20372 13.7581L4.72438 15.6711C4.35756 15.8728 4.17416 15.9736 4.03854 15.9474C3.92055 15.9245 3.81873 15.8472 3.76145 15.7369C3.69562 15.6102 3.73065 15.3966 3.80071 14.9696L4.46496 10.9204C4.48567 10.7942 4.49602 10.7311 4.48902 10.6707C4.48281 10.6172 4.46673 10.5655 4.44166 10.5184C4.41335 10.4652 4.36947 10.4205 4.28171 10.3312L1.46654 7.46444C1.16984 7.1623 1.02148 7.01122 1.00343 6.8683C0.98772 6.74395 1.02652 6.61883 1.10903 6.52777C1.20387 6.42312 1.40879 6.3918 1.81862 6.32917L5.71055 5.73443C5.83158 5.71593 5.8921 5.70668 5.94481 5.68106C5.99147 5.65837 6.03348 5.62643 6.06851 5.58702C6.10807 5.5425 6.13514 5.48516 6.18929 5.37048L7.9292 1.68521Z" stroke="#BDBFC7" stroke-linecap="round" stroke-linejoin="round"/>
</svg>
