<svg width="15" height="16" viewBox="0 0 15 16" fill="none" xmlns="http://www.w3.org/2000/svg">
<path id="Icon" d="M6.9292 0.791903C7.1126 0.403458 7.20429 0.209236 7.32878 0.147182C7.43709 0.0931919 7.56292 0.0931919 7.67122 0.147182C7.79571 0.209236 7.8874 0.403458 8.0708 0.791902L9.81071 4.47717C9.86486 4.59185 9.89193 4.64919 9.93149 4.69371C9.96652 4.73312 10.0085 4.76506 10.0552 4.78775C10.1079 4.81337 10.1684 4.82262 10.2895 4.84112L14.1814 5.43586C14.5912 5.49849 14.7961 5.52981 14.891 5.63446C14.9735 5.72552 15.0123 5.85064 14.9966 5.97499C14.9785 6.11791 14.8302 6.26899 14.5335 6.57113L11.7183 9.43787C11.6305 9.52724 11.5867 9.57192 11.5583 9.62508C11.5333 9.67216 11.5172 9.72387 11.511 9.77736C11.504 9.83777 11.5143 9.90088 11.535 10.0271L12.1993 14.0763C12.2694 14.5033 12.3044 14.7169 12.2385 14.8436C12.1813 14.9538 12.0795 15.0312 11.9615 15.054C11.8258 15.0803 11.6424 14.9795 11.2756 14.7778L7.79628 12.8648C7.68788 12.8052 7.63367 12.7754 7.57657 12.7637C7.526 12.7533 7.474 12.7533 7.42344 12.7637C7.36633 12.7754 7.31213 12.8052 7.20372 12.8648L3.72438 14.7778C3.35756 14.9795 3.17416 15.0803 3.03854 15.054C2.92055 15.0312 2.81873 14.9538 2.76145 14.8436C2.69562 14.7169 2.73065 14.5033 2.80071 14.0763L3.46496 10.0271C3.48567 9.90088 3.49602 9.83777 3.48902 9.77736C3.48281 9.72387 3.46673 9.67216 3.44166 9.62508C3.41335 9.57192 3.36947 9.52724 3.28171 9.43787L0.466545 6.57113C0.169835 6.26899 0.0214804 6.11791 0.00342745 5.97499C-0.0122796 5.85064 0.0265241 5.72552 0.109035 5.63446C0.203868 5.52981 0.408787 5.49849 0.818624 5.43586L4.71055 4.84112C4.83158 4.82262 4.8921 4.81337 4.94481 4.78775C4.99147 4.76506 5.03348 4.73312 5.06851 4.69371C5.10807 4.64919 5.13514 4.59185 5.18929 4.47717L6.9292 0.791903Z" fill="#FBCB3C"/>
</svg>
