<svg width="35" height="35" viewBox="0 0 35 35" fill="none" xmlns="http://www.w3.org/2000/svg">
<g id="gamesplanet_com_circle-4aac2ab0b9700fc58cb2631f1fd5d12fb5b162d956ab2c217dc61ec92d827d2e 2" clip-path="url(#clip0_183_8145)">
<path id="Vector" fill-rule="evenodd" clip-rule="evenodd" d="M22.4606 33.9951V29.8368C24.905 28.8136 26.9919 27.09 28.4585 24.883C29.9252 22.676 30.706 20.0843 30.7025 17.4344C30.7025 10.4615 25.4119 4.73055 18.6456 4.07346V8.46426C20.4425 8.73648 22.1162 9.54177 23.4503 10.7759C24.7843 12.0101 25.7172 13.6162 26.1282 15.3865C26.5392 17.1568 26.4093 19.0097 25.7554 20.7053C25.1016 22.401 23.9538 23.8613 22.4606 24.8973V16.5628H18.6445V34.7301C18.2008 34.7639 17.7514 34.782 17.2998 34.782C7.74366 34.782 -0.00488281 26.9917 -0.00488281 17.3949C-0.00488281 7.79813 7.74366 0.0078125 17.2998 0.0078125C26.8559 0.0078125 34.6033 7.79813 34.6033 17.3949C34.6082 21.0937 33.4334 24.6976 31.2497 27.6829C29.066 30.6683 25.9871 32.8794 22.4606 33.9951ZM16.0477 27.8068V16.5628H12.2316V24.8973C10.7379 23.8616 9.58955 22.4014 8.93531 20.7056C8.28106 19.0098 8.15104 17.1566 8.56208 15.3861C8.97311 13.6155 9.90627 12.0092 11.2407 10.7751C12.5751 9.54098 14.2494 8.73595 16.0466 8.46426V4.07346C9.28028 4.73055 3.99076 10.4615 3.99076 17.4344C3.99076 24.4073 9.28028 30.1383 16.0477 30.7943V27.8068Z" fill="#EEEEEE"/>
</g>
<defs>
<clipPath id="clip0_183_8145">
<rect width="35" height="35" fill="white"/>
</clipPath>
</defs>
</svg>
