<svg width="186" height="87" viewBox="0 0 186 87" fill="none" xmlns="http://www.w3.org/2000/svg">
<g id="LOGO" filter="url(#filter0_d_373_11061)">
<g id="G">
<path id="Ellipse 7" d="M118.57 43.2673C118.862 43.2673 119.1 43.5042 119.083 43.7956C118.97 45.7468 118.228 47.6177 116.959 49.1354C115.576 50.7897 113.65 51.922 111.511 52.3395C109.373 52.757 107.152 52.4338 105.229 51.425C103.306 50.4162 101.798 48.7842 100.964 46.8071C100.129 44.83 100.019 42.6301 100.652 40.5822C101.285 38.5343 102.622 36.7652 104.436 35.5762C106.249 34.3873 108.426 33.8521 110.596 34.0619C112.586 34.2542 114.457 35.0616 115.943 36.3606C116.165 36.5553 116.165 36.8967 115.953 37.1038L114.448 38.5809C114.243 38.7826 113.915 38.7806 113.693 38.5968C112.732 37.8 111.544 37.3047 110.283 37.1829C108.849 37.0443 107.41 37.398 106.211 38.1838C105.013 38.9697 104.129 40.139 103.711 41.4925C103.292 42.8461 103.365 44.3002 103.917 45.607C104.468 46.9137 105.464 47.9924 106.736 48.6592C108.007 49.326 109.474 49.5396 110.888 49.2636C112.302 48.9877 113.574 48.2393 114.489 47.1459C115.289 46.1891 115.771 45.0201 115.88 43.7952C115.905 43.5044 116.139 43.2673 116.431 43.2673H118.57Z" fill="#DB850B"/>
<path id="Ellipse 9" d="M114.275 43.2969C114.379 43.2969 114.464 43.3815 114.46 43.4858C114.419 44.5115 114.04 45.4986 113.378 46.2978C112.675 47.1459 111.696 47.7307 110.606 47.9538C109.516 48.177 108.38 48.0249 107.391 47.5231C106.401 47.0212 105.618 46.2003 105.173 45.1984C104.727 44.1965 104.647 43.0747 104.946 42.0217C105.245 40.9687 105.904 40.0487 106.812 39.4164C107.721 38.7842 108.824 38.4782 109.935 38.5501C110.982 38.6178 111.977 39.0171 112.772 39.6854C112.852 39.7528 112.856 39.8733 112.784 39.9493C112.714 40.0233 112.598 40.0273 112.52 39.9618C111.788 39.3487 110.873 38.9823 109.91 38.92C108.885 38.8537 107.868 39.1358 107.031 39.7188C106.193 40.3018 105.585 41.1501 105.31 42.1211C105.035 43.092 105.108 44.1264 105.519 45.0502C105.929 45.9741 106.652 46.731 107.564 47.1937C108.476 47.6564 109.523 47.7967 110.529 47.5909C111.534 47.3852 112.437 46.8459 113.085 46.0639C113.692 45.3308 114.041 44.4263 114.082 43.4858C114.087 43.3815 114.171 43.2969 114.275 43.2969Z" fill="#DB850B"/>
<circle id="Ellipse 8" cx="109.643" cy="43.2969" r="1.46825" fill="#302CF0"/>
<path id="Line 6" d="M109.584 32.1384V54.4558" stroke="#DB850B" stroke-width="0.587299" stroke-linecap="round"/>
<path id="Line 7" d="M98.4257 43.2969H120.743" stroke="#DB850B" stroke-width="0.587299" stroke-linecap="round"/>
<path id="Line 8" d="M109.643 43.2969H117.63" stroke="#DB850B" stroke-width="2.9365" stroke-linecap="round"/>
</g>
<g id="Hunt*ame">
<g id="Hunt-Game">
<path d="M126.356 45.9926C125.627 46.0239 125.028 46.0866 124.558 46.1805C124.089 46.2745 123.717 46.3919 123.443 46.5329C123.169 46.6739 122.977 46.8344 122.867 47.0145C122.765 47.1946 122.714 47.3904 122.714 47.6018C122.714 48.0168 122.828 48.3105 123.055 48.4827C123.282 48.6472 123.615 48.7294 124.053 48.7294C124.523 48.7294 124.934 48.6472 125.287 48.4827C125.639 48.3183 125.995 48.052 126.356 47.684V45.9926ZM119.801 40.4602C120.537 39.8103 121.352 39.3287 122.245 39.0155C123.145 38.6944 124.108 38.5339 125.134 38.5339C125.87 38.5339 126.532 38.6553 127.119 38.898C127.714 39.1329 128.215 39.4657 128.623 39.8964C129.038 40.3193 129.355 40.8244 129.574 41.4116C129.793 41.9989 129.903 42.6411 129.903 43.338V50.9494H128.235C127.89 50.9494 127.628 50.9024 127.448 50.8084C127.276 50.7145 127.131 50.5187 127.013 50.2211L126.755 49.5516C126.45 49.81 126.156 50.0371 125.874 50.2329C125.592 50.4287 125.298 50.597 124.993 50.738C124.696 50.8711 124.374 50.969 124.03 51.0316C123.693 51.1021 123.317 51.1373 122.902 51.1373C122.346 51.1373 121.841 51.0669 121.387 50.9259C120.933 50.7771 120.545 50.5618 120.224 50.2799C119.911 49.998 119.668 49.6495 119.496 49.2345C119.324 48.8116 119.238 48.3261 119.238 47.778C119.238 47.3395 119.347 46.897 119.566 46.4507C119.786 45.9965 120.165 45.5854 120.706 45.2173C121.246 44.8415 121.974 44.5283 122.891 44.2777C123.807 44.0271 124.962 43.8861 126.356 43.8548V43.338C126.356 42.6254 126.207 42.1125 125.909 41.7993C125.62 41.4782 125.205 41.3177 124.664 41.3177C124.234 41.3177 123.881 41.3647 123.607 41.4586C123.333 41.5526 123.086 41.6583 122.867 41.7758C122.656 41.8932 122.448 41.9989 122.245 42.0929C122.041 42.1869 121.798 42.2339 121.516 42.2339C121.266 42.2339 121.054 42.1712 120.882 42.0459C120.71 41.9206 120.569 41.7719 120.459 41.5996L119.801 40.4602Z" fill="white"/>
<path d="M130.351 50.9494V38.7688H132.606C133.061 38.7688 133.358 38.9724 133.499 39.3796L133.699 40.0374C133.902 39.8259 134.114 39.6341 134.333 39.4618C134.552 39.2817 134.787 39.129 135.038 39.0037C135.296 38.8706 135.57 38.7688 135.86 38.6983C136.158 38.62 136.482 38.5809 136.835 38.5809C137.571 38.5809 138.178 38.7727 138.656 39.1564C139.141 39.5323 139.509 40.0374 139.76 40.6717C139.963 40.2958 140.21 39.9747 140.5 39.7085C140.797 39.4422 141.114 39.2269 141.451 39.0625C141.796 38.898 142.156 38.7766 142.532 38.6983C142.915 38.62 143.295 38.5809 143.671 38.5809C144.368 38.5809 144.987 38.6866 145.527 38.898C146.067 39.1016 146.517 39.4031 146.878 39.8025C147.246 40.194 147.524 40.6795 147.712 41.259C147.9 41.8306 147.994 42.4805 147.994 43.2088V50.9494H144.352V43.2088C144.352 41.948 143.812 41.3177 142.731 41.3177C142.238 41.3177 141.827 41.4821 141.498 41.811C141.177 42.1321 141.016 42.598 141.016 43.2088V50.9494H137.375V43.2088C137.375 42.5119 137.238 42.0224 136.964 41.7405C136.69 41.4586 136.287 41.3177 135.754 41.3177C135.425 41.3177 135.112 41.3921 134.815 41.5409C134.525 41.6896 134.251 41.8893 133.992 42.1399V50.9494H130.351Z" fill="white"/>
<path d="M156.735 43.3967C156.735 43.107 156.695 42.8251 156.617 42.551C156.547 42.2769 156.425 42.0342 156.253 41.8228C156.089 41.6035 155.869 41.4273 155.595 41.2942C155.321 41.1611 154.988 41.0945 154.597 41.0945C153.908 41.0945 153.367 41.2942 152.976 41.6936C152.584 42.0851 152.326 42.6528 152.201 43.3967H156.735ZM152.154 45.511C152.271 46.529 152.58 47.269 153.082 47.731C153.583 48.1852 154.229 48.4123 155.02 48.4123C155.443 48.4123 155.807 48.3614 156.112 48.2596C156.417 48.1578 156.688 48.0442 156.923 47.9189C157.165 47.7936 157.385 47.6801 157.58 47.5783C157.784 47.4765 157.995 47.4256 158.215 47.4256C158.504 47.4256 158.724 47.5313 158.872 47.7427L159.929 49.0465C159.554 49.4772 159.146 49.8296 158.708 50.1037C158.277 50.3699 157.831 50.5813 157.369 50.738C156.915 50.8867 156.457 50.9885 155.995 51.0434C155.54 51.106 155.106 51.1373 154.691 51.1373C153.837 51.1373 153.035 51.0003 152.283 50.7262C151.539 50.4443 150.885 50.0293 150.321 49.4811C149.765 48.933 149.323 48.2517 148.994 47.4373C148.673 46.623 148.512 45.6754 148.512 44.5948C148.512 43.7804 148.649 43.0091 148.924 42.2809C149.205 41.5526 149.605 40.9144 150.122 40.3663C150.646 39.8181 151.277 39.3835 152.013 39.0625C152.757 38.7414 153.594 38.5809 154.526 38.5809C155.333 38.5809 156.069 38.7062 156.735 38.9567C157.408 39.2073 157.984 39.5714 158.461 40.0491C158.947 40.5268 159.323 41.1141 159.589 41.811C159.863 42.5001 160 43.2832 160 44.1602C160 44.4343 159.988 44.6575 159.965 44.8297C159.941 45.002 159.898 45.139 159.836 45.2408C159.773 45.3426 159.687 45.4131 159.577 45.4523C159.475 45.4914 159.342 45.511 159.178 45.511H152.154Z" fill="white"/>
<path d="M68.1848 38.4399V50.6205H65.9295C65.4753 50.6205 65.1778 50.4169 65.0368 50.0097L64.8254 49.3049C64.5905 49.532 64.3477 49.7395 64.0971 49.9275C63.8466 50.1076 63.5764 50.2642 63.2867 50.3973C63.0048 50.5226 62.6955 50.6205 62.3587 50.691C62.0299 50.7693 61.6696 50.8084 61.2781 50.8084C60.6125 50.8084 60.0213 50.6949 59.5045 50.4678C58.9955 50.2329 58.5648 49.9079 58.2124 49.4929C57.86 49.0779 57.5938 48.5884 57.4137 48.0246C57.2336 47.4608 57.1435 46.8422 57.1435 46.1688V38.4399H60.7848V46.1688C60.7848 46.7717 60.9218 47.2376 61.1959 47.5665C61.47 47.8954 61.8732 48.0599 62.4057 48.0599C62.8051 48.0599 63.177 47.9776 63.5216 47.8132C63.874 47.6409 64.2146 47.4099 64.5435 47.1202V38.4399H68.1848Z" fill="white"/>
<path d="M72.3149 39.7555C72.5499 39.5362 72.7926 39.3326 73.0432 39.1447C73.2938 38.9567 73.56 38.8001 73.8419 38.6748C74.1316 38.5417 74.441 38.4399 74.7698 38.3694C75.1066 38.2911 75.4707 38.252 75.8622 38.252C76.5278 38.252 77.1151 38.3694 77.6241 38.6043C78.1409 38.8314 78.5755 39.1525 78.9279 39.5675C79.2803 39.9747 79.5465 40.4641 79.7266 41.0358C79.9067 41.5996 79.9968 42.2143 79.9968 42.8799V50.6205H76.3556V42.8799C76.3556 42.2848 76.2185 41.8227 75.9444 41.4939C75.6704 41.1571 75.2671 40.9888 74.7346 40.9888C74.3352 40.9888 73.9594 41.0749 73.607 41.2472C73.2624 41.4116 72.9257 41.6387 72.5968 41.9285V50.6205H68.9556V38.4399H71.2108C71.665 38.4399 71.9626 38.6435 72.1035 39.0507L72.3149 39.7555Z" fill="white"/>
<path d="M85.5521 50.8084C84.9726 50.8084 84.4597 50.7262 84.0134 50.5618C83.5749 50.3895 83.2029 50.1507 82.8975 49.8453C82.5999 49.532 82.3729 49.1562 82.2162 48.7176C82.0596 48.2791 81.9813 47.7897 81.9813 47.2494V40.9535H80.9477C80.7597 40.9535 80.5992 40.8948 80.4661 40.7774C80.333 40.6521 80.2664 40.472 80.2664 40.237V38.8158L82.2045 38.4399L82.921 35.4682C83.015 35.0923 83.2812 34.9044 83.7197 34.9044H85.6226V38.4634H88.6413V40.9535H85.6226V47.0027C85.6226 47.2846 85.6891 47.5195 85.8223 47.7075C85.9632 47.8876 86.1629 47.9776 86.4213 47.9776C86.5544 47.9776 86.6641 47.9659 86.7502 47.9424C86.8442 47.9111 86.9225 47.8798 86.9851 47.8484C87.0556 47.8093 87.1182 47.778 87.173 47.7545C87.2357 47.7231 87.3062 47.7075 87.3845 47.7075C87.4941 47.7075 87.5802 47.7349 87.6429 47.7897C87.7134 47.8367 87.7838 47.915 87.8543 48.0246L88.9584 49.7513C88.4886 50.1037 87.96 50.3699 87.3727 50.55C86.7854 50.7223 86.1786 50.8084 85.5521 50.8084Z" fill="white"/>
<path fill-rule="evenodd" clip-rule="evenodd" d="M56.3547 50.6205V33.5066H52.3611V40.6599V43.385V50.6205H56.3547ZM45.4075 43.385V40.6599V33.5066H41.4138V50.6205H45.4075V43.385Z" fill="white"/>
</g>
<g id="Vector">
<path d="M101.974 41.0253L93.6184 38.66L97.2813 43.0461L54.3725 42.9119L43.5368 42.8781L38.5218 42.8624L36.0931 40.8386L29.677 38.7622L30.4645 40.8386L25.9182 40.201L29.3117 43.2037L25.9183 46.0447L30.7006 45.5682L29.677 47.2486L36.0931 45.5669L38.591 43.9938L97.3553 44.1774L93.6183 48.1125L101.738 45.7496L109.509 43.3885L101.974 41.0253Z" fill="white"/>
<path d="M43.5368 42.3159L43.5368 42.8781L54.3725 42.9119L54.3725 42.3159L43.5368 42.3159Z" fill="white"/>
</g>
</g>
</g>
<defs>
<filter id="filter0_d_373_11061" x="0.506952" y="6.43344" width="184.904" height="73.7274" filterUnits="userSpaceOnUse" color-interpolation-filters="sRGB">
<feFlood flood-opacity="0" result="BackgroundImageFix"/>
<feColorMatrix in="SourceAlpha" type="matrix" values="0 0 0 0 0 0 0 0 0 0 0 0 0 0 0 0 0 0 127 0" result="hardAlpha"/>
<feOffset/>
<feGaussianBlur stdDeviation="12.7056"/>
<feComposite in2="hardAlpha" operator="out"/>
<feColorMatrix type="matrix" values="0 0 0 0 0 0 0 0 0 0 0 0 0 0 0 0 0 0 0.8 0"/>
<feBlend mode="normal" in2="BackgroundImageFix" result="effect1_dropShadow_373_11061"/>
<feBlend mode="normal" in="SourceGraphic" in2="effect1_dropShadow_373_11061" result="shape"/>
</filter>
</defs>
</svg>
