<svg width="27" height="27" viewBox="0 0 27 27" fill="none" xmlns="http://www.w3.org/2000/svg">
<g id="message-chat-square">
<path id="Icon" d="M11.25 16.875L7.79034 20.3779C7.30776 20.8665 7.06647 21.1108 6.85907 21.1281C6.67914 21.143 6.50297 21.0707 6.38545 20.9336C6.25 20.7756 6.25 20.4322 6.25 19.7455V17.9906C6.25 17.3745 5.74546 16.9287 5.13585 16.8394V16.8394C3.66046 16.6233 2.50175 15.4645 2.28563 13.9891C2.25 13.7459 2.25 13.4556 2.25 12.875V7.65C2.25 5.75982 2.25 4.81473 2.61785 4.09278C2.94143 3.45774 3.45774 2.94143 4.09278 2.61785C4.81473 2.25 5.75982 2.25 7.65 2.25H15.975C17.8652 2.25 18.8103 2.25 19.5322 2.61785C20.1673 2.94143 20.6836 3.45774 21.0071 4.09278C21.375 4.81473 21.375 5.75982 21.375 7.65V12.375M21.375 24.75L18.9265 23.0477C18.5824 22.8085 18.4103 22.6888 18.223 22.604C18.0568 22.5287 17.882 22.4739 17.7025 22.4408C17.5003 22.4036 17.2907 22.4036 16.8715 22.4036H14.85C13.5899 22.4036 12.9598 22.4036 12.4785 22.1583C12.0552 21.9426 11.711 21.5984 11.4952 21.1751C11.25 20.6938 11.25 20.0637 11.25 18.8036V15.975C11.25 14.7149 11.25 14.0848 11.4952 13.6035C11.711 13.1802 12.0552 12.836 12.4785 12.6202C12.9598 12.375 13.5899 12.375 14.85 12.375H21.15C22.4101 12.375 23.0402 12.375 23.5215 12.6202C23.9448 12.836 24.2891 13.1802 24.5048 13.6035C24.75 14.0848 24.75 14.7149 24.75 15.975V19.0286C24.75 20.0769 24.75 20.6011 24.5787 21.0146C24.3504 21.5659 23.9124 22.0039 23.361 22.2323C22.9476 22.4036 22.4234 22.4036 21.375 22.4036V24.75Z" stroke="white" stroke-width="2.25" stroke-linecap="round" stroke-linejoin="round"/>
</g>
</svg>
