<svg width="112" height="17" viewBox="0 0 112 17" fill="none" xmlns="http://www.w3.org/2000/svg">
<g id="Nintendo">
<path id="path29" d="M108.731 1.16221C109.489 1.16221 109.864 1.41931 109.864 1.92827C109.864 2.27719 109.646 2.54217 109.284 2.63399L109.877 3.81981H109.158L108.649 2.73106H108.335V3.81981H107.687V1.16483H108.728L108.731 1.16221ZM108.673 0.123304C107.348 0.123304 106.275 1.19631 106.275 2.52118C106.275 3.84604 107.348 4.91905 108.673 4.91905C109.998 4.91905 111.071 3.84604 111.071 2.52118C111.071 1.19631 109.998 0.123304 108.673 0.123304ZM110.612 2.5238C110.612 3.59419 109.743 4.46256 108.673 4.46256C107.603 4.46256 106.734 3.59419 106.734 2.5238C106.734 1.45342 107.603 0.58504 108.673 0.58504C109.743 0.58504 110.612 1.45079 110.612 2.5238ZM108.337 2.34278H108.652C109.022 2.34278 109.2 2.22997 109.2 1.96762C109.2 1.70527 109.009 1.57147 108.621 1.57147H108.337V2.34278ZM54.1515 8.83331C54.1437 7.92558 54.1647 7.31955 54.4611 6.80272C54.8258 6.16521 55.5 5.86089 56.1087 5.85826C56.7199 5.86089 57.3916 6.16521 57.7562 6.80272C58.0553 7.32217 58.0658 7.9282 58.0605 8.83593H54.1515V8.83331ZM58.0448 11.9579C58.0448 11.9579 58.0474 12.0051 58.0474 12.5849C58.0474 14.4791 56.8013 14.9014 56.1087 14.9014C55.4161 14.9014 54.1489 14.4817 54.1489 12.5849C54.1489 12.0182 54.1515 10.4468 54.1515 10.4468C54.1515 10.4468 62.977 10.4494 62.977 10.4468C62.977 7.23298 59.876 4.57275 56.0641 4.57275C52.2521 4.57275 49.1669 7.17788 49.1669 10.389C49.1669 13.6002 52.2547 16.2053 56.0641 16.2053C59.2254 16.2053 61.8961 14.403 62.7094 11.9553H58.0422L58.0448 11.9579ZM72.7836 4.74328C74.5361 4.69343 78.0883 5.8399 78.0647 9.94042C78.0621 10.6671 78.0647 15.5783 78.0647 15.5783H73.4106V8.77559C73.4106 7.87311 72.5475 6.86831 71.2698 6.86831C69.9922 6.86831 69.0451 7.87311 69.0451 8.77559C69.0451 9.21896 69.0503 15.5783 69.0503 15.5783H64.3989V5.22075L69.0503 5.21813C69.0503 5.21813 69.0451 6.0524 69.0503 6.30688C69.945 5.45162 71.2383 4.78788 72.7836 4.74328ZM34.7141 4.74328C36.4666 4.69343 40.0188 5.8399 39.9952 9.94042C39.9925 10.6671 39.9952 15.5783 39.9952 15.5783H35.3411V8.77559C35.3411 7.87311 34.478 6.86831 33.2003 6.86831C31.9227 6.86831 30.9756 7.87311 30.9756 8.77559C30.9756 9.21896 30.9808 15.5783 30.9808 15.5783H26.3294V5.22075L30.9808 5.21813C30.9808 5.21813 30.9756 6.0524 30.9808 6.30688C31.8755 5.45162 33.1662 4.78788 34.7141 4.74328ZM88.1599 0.00262379H92.7825V15.5809H88.152C88.152 15.5809 88.152 15.0772 88.152 14.9828C86.3602 16.1083 84.3375 16.1056 82.7607 15.3711C82.3384 15.1743 79.5574 13.8416 79.5574 10.2342C79.5574 7.50057 82.1363 4.51241 85.5128 4.80886C86.6251 4.90593 87.4148 5.31257 88.1625 5.73233C88.1599 3.33446 88.1599 0 88.1599 0V0.00262379ZM88.194 10.3497V8.4975C88.194 6.89454 87.0869 6.4879 86.3602 6.4879C85.6335 6.4879 84.5237 6.89717 84.5237 8.4975C84.5237 9.03007 84.5237 10.3444 84.5237 10.3444C84.5237 10.3444 84.5237 11.6352 84.5237 12.1861C84.5237 13.7865 85.6151 14.2062 86.3602 14.2062C87.1052 14.2062 88.1966 13.7865 88.1966 12.1861C88.1966 11.5198 88.1966 10.3497 88.1966 10.3497H88.194ZM103.038 10.3182C103.038 10.3182 103.038 11.8844 103.038 12.5114C103.038 14.1642 102.062 14.8437 101.123 14.8437C100.183 14.8437 99.2022 14.1616 99.2022 12.5114C99.2022 11.8844 99.2022 10.2789 99.2022 10.2789C99.2022 10.2789 99.2048 8.74673 99.2048 8.11971C99.2048 6.47478 100.186 5.79792 101.12 5.79792C102.054 5.79792 103.035 6.47478 103.035 8.11971C103.035 8.74673 103.035 9.90894 103.038 10.3235V10.3182ZM101.157 4.51503C97.3762 4.51503 94.3093 7.12016 94.3093 10.3313C94.3093 13.5425 97.3762 16.1476 101.157 16.1476C104.937 16.1476 108.004 13.5425 108.004 10.3313C108.004 7.12016 104.94 4.51503 101.157 4.51503ZM19.0544 3.18492V0H23.7505V3.18492H19.0544ZM19.0649 15.5836V5.22338H23.7479V15.5836H19.0649ZM42.5662 15.5836V5.24436H40.0214V3.707H42.5714L42.5688 1.6082H47.257V3.70437H49.7939V5.24436H47.257V15.5836H42.5688H42.5662ZM0.00262322 15.5836V0.00524701H4.85871L11.5722 10.8691V0.00524701H16.3837V15.5836H11.5749L4.8246 4.71967V15.5836H0H0.00262322Z" fill="white"/>
</g>
</svg>
