<svg width="28" height="27" viewBox="0 0 28 27" fill="none" xmlns="http://www.w3.org/2000/svg">
<g id="announcement-01">
<path id="Icon" d="M24.81 9.00009V13.5001M11.5912 6.18758H7.71C5.81982 6.18758 4.87473 6.18758 4.15278 6.55544C3.51773 6.87901 3.00142 7.39532 2.67785 8.03037C2.31 8.75232 2.31 9.69741 2.31 11.5876L2.31 12.9376C2.31 13.986 2.31 14.5101 2.48127 14.9236C2.70963 15.4749 3.14765 15.9129 3.69896 16.1413C4.11245 16.3126 4.63663 16.3126 5.685 16.3126V21.0938C5.685 21.355 5.685 21.4856 5.69583 21.5956C5.80105 22.6639 6.64621 23.509 7.71446 23.6142C7.82446 23.6251 7.95506 23.6251 8.21625 23.6251C8.47744 23.6251 8.60804 23.6251 8.71804 23.6142C9.78629 23.509 10.6315 22.6639 10.7367 21.5956C10.7475 21.4856 10.7475 21.355 10.7475 21.0938V16.3126H11.5912C13.5785 16.3126 16.0094 17.3778 17.8848 18.4002C18.9789 18.9966 19.526 19.2948 19.8843 19.2509C20.2165 19.2102 20.4677 19.0611 20.6625 18.7888C20.8725 18.4952 20.8725 17.9078 20.8725 16.733V5.76715C20.8725 4.59233 20.8725 4.00492 20.6625 3.71133C20.4677 3.4391 20.2165 3.28992 19.8843 3.24923C19.526 3.20535 18.9789 3.50356 17.8848 4.09998C16.0094 5.12233 13.5785 6.18758 11.5912 6.18758Z" stroke="white" stroke-width="2.25" stroke-linecap="round" stroke-linejoin="round"/>
</g>
</svg>
