<svg width="29" height="19" viewBox="0 0 29 19" fill="none" xmlns="http://www.w3.org/2000/svg">
<g id="PC">
<path d="M5.70873 9.37199C6.30073 9.37199 6.81673 9.29999 7.25673 9.15599C7.69673 9.00399 8.06073 8.79199 8.34873 8.51999C8.64473 8.23999 8.86473 7.90399 9.00873 7.51199C9.15273 7.11199 9.22473 6.66799 9.22473 6.17999C9.22473 5.71599 9.15273 5.29599 9.00873 4.91999C8.86473 4.54399 8.64873 4.22399 8.36073 3.95999C8.07273 3.69599 7.70873 3.49599 7.26873 3.35999C6.82873 3.21599 6.30873 3.14399 5.70873 3.14399H3.29673V9.37199H5.70873ZM5.70873 0.647993C6.86873 0.647993 7.87273 0.783993 8.72073 1.05599C9.56873 1.32799 10.2687 1.70799 10.8207 2.19599C11.3727 2.68399 11.7807 3.26799 12.0447 3.94799C12.3167 4.62799 12.4527 5.37199 12.4527 6.17999C12.4527 7.01999 12.3127 7.79199 12.0327 8.49599C11.7527 9.19199 11.3327 9.79199 10.7727 10.296C10.2127 10.8 9.50873 11.192 8.66073 11.472C7.82073 11.752 6.83673 11.892 5.70873 11.892H3.29673V18H0.0687256V0.647993H5.70873Z" fill="white"/>
<path d="M26.8441 13.908C27.0201 13.908 27.1761 13.976 27.3121 14.112L28.5841 15.492C27.8801 16.364 27.0121 17.032 25.9801 17.496C24.9561 17.96 23.7241 18.192 22.2841 18.192C20.9961 18.192 19.8361 17.972 18.8041 17.532C17.7801 17.092 16.9041 16.48 16.1761 15.696C15.4481 14.912 14.8881 13.976 14.4961 12.888C14.1121 11.8 13.9201 10.612 13.9201 9.32399C13.9201 8.01999 14.1281 6.82799 14.5441 5.74799C14.9601 4.65999 15.5441 3.72399 16.2961 2.93999C17.0561 2.15599 17.9601 1.54799 19.0081 1.11599C20.0561 0.675993 21.2161 0.455994 22.4881 0.455994C23.7521 0.455994 24.8721 0.663993 25.8481 1.07999C26.8321 1.49599 27.6681 2.03999 28.3561 2.71199L27.2761 4.21199C27.2121 4.30799 27.1281 4.39199 27.0241 4.46399C26.9281 4.53599 26.7921 4.57199 26.6161 4.57199C26.4961 4.57199 26.3721 4.53999 26.2441 4.47599C26.1161 4.40399 25.9761 4.31999 25.8241 4.22399C25.6721 4.11999 25.4961 4.00799 25.2961 3.88799C25.0961 3.76799 24.8641 3.65999 24.6001 3.56399C24.3361 3.45999 24.0281 3.37599 23.6761 3.31199C23.3321 3.23999 22.9321 3.20399 22.4761 3.20399C21.7001 3.20399 20.9881 3.34399 20.3401 3.62399C19.7001 3.89599 19.1481 4.29599 18.6841 4.82399C18.2201 5.34399 17.8601 5.98399 17.6041 6.74399C17.3481 7.49599 17.2201 8.35599 17.2201 9.32399C17.2201 10.3 17.3561 11.168 17.6281 11.928C17.9081 12.688 18.2841 13.328 18.7561 13.848C19.2281 14.368 19.7841 14.768 20.4241 15.048C21.0641 15.32 21.7521 15.456 22.4881 15.456C22.9281 15.456 23.3241 15.432 23.6761 15.384C24.0361 15.336 24.3641 15.26 24.6601 15.156C24.9641 15.052 25.2481 14.92 25.5121 14.76C25.7841 14.592 26.0521 14.388 26.3161 14.148C26.3961 14.076 26.4801 14.02 26.5681 13.98C26.6561 13.932 26.7481 13.908 26.8441 13.908Z" fill="white"/>
</g>
</svg>
