<svg width="147" height="27" viewBox="0 0 147 27" fill="none" xmlns="http://www.w3.org/2000/svg">
<g id="Playstation">
<g id="Group">
<g id="Group_2">
<path id="Vector" fill-rule="evenodd" clip-rule="evenodd" d="M45.1282 5.32217L38.2225 5.31995L38.1714 5.36365V20.7599L38.2225 20.8059H41.0191L41.068 20.7599V7.0397L41.0873 7.01526L44.2861 7.01007C45.4533 7.01007 46.0917 8.12769 46.0917 10.1659C46.0917 12.2041 45.4533 13.3203 44.2861 13.3203L42.3626 13.3173L42.3115 13.3654V14.9615L42.3626 15.0111H45.1282C46.0917 15.0111 47.0471 14.5823 47.7404 13.838C48.5588 12.9625 48.9906 11.6953 48.9906 10.1763C48.9906 7.22708 47.473 5.32291 45.1282 5.32291V5.32217Z" fill="white"/>
<path id="Vector_2" fill-rule="evenodd" clip-rule="evenodd" d="M53.5587 5.31995H50.7621L50.7132 5.36365V20.7599L50.7621 20.8051H53.5587L53.6098 20.7599V5.36365L53.5587 5.31995Z" fill="white"/>
<path id="Vector_3" fill-rule="evenodd" clip-rule="evenodd" d="M65.7755 9.0661L65.7207 9.01648H60.7295C56.262 9.01648 55.691 12.1531 55.691 14.8993L55.6962 17.2775C55.6962 19.3209 57.0271 20.8059 58.8654 20.8059H61.5827L61.6331 20.76V19.1639L61.5827 19.1172H59.6401C59.189 19.1084 58.5876 18.9276 58.5861 17.4656V14.8986C58.5861 13.1907 58.7587 12.1034 59.1253 11.485C59.526 10.7984 60.1585 10.7059 60.7281 10.7059H62.8603L62.8803 10.7303V20.76L62.9263 20.8059H65.7236L65.7747 20.76V9.0661H65.7755Z" fill="white"/>
<path id="Vector_4" fill-rule="evenodd" clip-rule="evenodd" d="M85.911 11.7649L84.5298 11.6642C83.5018 11.5813 82.7285 11.0362 82.7285 9.41343C82.7285 7.52629 83.6232 7.01526 84.8008 7.01526H88.6151L88.6647 6.96711V5.36365L88.6151 5.31995H84.4068C81.802 5.31995 79.9467 6.77825 79.9467 9.68524V9.80522C79.9467 12.1093 81.4272 13.7609 83.6314 13.9194L85.0104 14.0194C86.0503 14.0972 86.6976 14.9823 86.6976 16.3398V16.722C86.6976 17.573 86.4813 19.1179 84.5794 19.1179H80.6177L80.5666 19.1639V20.7599L80.6177 20.8059H85.5289C87.0516 20.8059 89.5942 20.22 89.5942 16.2821C89.5942 14.8652 89.2461 13.7372 88.5633 12.9277C87.9715 12.2345 87.1057 11.8538 85.911 11.7657V11.7649Z" fill="white"/>
<path id="Vector_5" fill-rule="evenodd" clip-rule="evenodd" d="M108.841 9.0661L108.791 9.01648H103.8C99.3343 9.01648 98.7632 12.1531 98.7632 14.8993V17.2775C98.7632 19.3209 100.096 20.8059 101.933 20.8059H104.653L104.702 20.76V19.1639L104.653 19.1172H102.71C102.258 19.1084 101.658 18.9276 101.658 17.4656V14.8986C101.658 13.1907 101.825 12.1034 102.194 11.485C102.593 10.7984 103.231 10.7059 103.797 10.7059H105.932L105.949 10.7303L105.945 20.76L105.994 20.8059H108.794L108.845 20.76L108.842 9.0661H108.841Z" fill="white"/>
<path id="Vector_6" fill-rule="evenodd" clip-rule="evenodd" d="M97.5908 9.01571H94.5639L94.5431 9.0009V7.0634L94.4972 7.01526H91.6976L91.6495 7.0634V17.2804C91.6495 19.3238 92.9804 20.8059 94.8216 20.8059H96.828L96.8746 20.7599V19.1639L96.828 19.1172H95.5948C95.2793 19.1083 94.5439 19.095 94.5439 17.5871V10.7192L94.5646 10.7014C95.4852 10.7051 97.5916 10.7014 97.5916 10.7014L97.6419 10.654V9.06533L97.5916 9.01571H97.5908Z" fill="white"/>
<path id="Vector_7" fill-rule="evenodd" clip-rule="evenodd" d="M117.13 9.01571H114.103L114.086 9.0009V7.0634L114.035 7.01526H111.239L111.187 7.0634V17.2804C111.187 19.3238 112.521 20.8059 114.362 20.8059H116.364L116.416 20.7599V19.1639L116.364 19.1172H115.128C114.821 19.1083 114.086 19.095 114.083 17.5871V10.7192L114.099 10.7014C115.028 10.7051 117.129 10.7014 117.129 10.7014L117.178 10.654V9.06533L117.129 9.01571H117.13Z" fill="white"/>
<path id="Vector_8" fill-rule="evenodd" clip-rule="evenodd" d="M121.757 9.01569H118.959L118.91 9.06605V20.7599L118.959 20.8051H121.757L121.807 20.7599V9.06605L121.757 9.01569Z" fill="white"/>
<path id="Vector_9" fill-rule="evenodd" clip-rule="evenodd" d="M121.757 5.31995H118.959L118.91 5.36365V7.59962L118.959 7.64776H121.757L121.807 7.59962V5.36365L121.757 5.31995Z" fill="white"/>
<path id="Vector_10" fill-rule="evenodd" clip-rule="evenodd" d="M141.106 9.01569H136.113L136.063 9.06531L136.06 20.7592L136.112 20.8051H138.908L138.957 20.7592L138.952 10.7236L138.972 10.7066H141.106C141.676 10.7058 142.311 10.7917 142.711 11.4272C143.081 12.0019 143.254 13.007 143.254 14.5927C143.254 14.6645 143.249 20.7599 143.249 20.7599L143.295 20.8058H146.092L146.143 20.7599V14.8993C146.143 12.1538 145.573 9.01643 141.106 9.01643V9.01569Z" fill="white"/>
<path id="Vector_11" fill-rule="evenodd" clip-rule="evenodd" d="M128.939 9.01569C124.269 9.01569 123.669 12.1686 123.669 14.9148C123.669 17.6611 124.27 20.8147 128.937 20.8147C133.605 20.8147 134.211 17.6596 134.211 14.9148C134.211 12.17 133.614 9.01569 128.939 9.01569ZM130.716 18.3425C130.272 19.0313 129.568 19.1246 128.939 19.1246C128.309 19.1246 127.607 19.032 127.164 18.3425C126.761 17.7174 126.573 16.6301 126.573 14.9148V14.9008C126.573 12.8722 126.837 11.719 127.424 11.1702C127.769 10.8443 128.223 10.7058 128.938 10.7058C129.653 10.7058 130.105 10.8436 130.455 11.1702C131.041 11.7197 131.307 12.8766 131.303 14.9156C131.303 16.6309 131.119 17.7218 130.716 18.3432L130.716 18.3425Z" fill="white"/>
<path id="Vector_12" fill-rule="evenodd" clip-rule="evenodd" d="M67.3515 9.01569L67.3167 9.05938L71.462 20.6503V20.7444L69.1305 26.4858L69.1601 26.5331H71.5931L71.6635 26.4858L78.952 9.05938L78.9239 9.01569H76.265L76.1969 9.05938L73.1084 16.6775H73.0721L70.3555 9.05938L70.2874 9.01569H67.3515Z" fill="white"/>
</g>
<g id="Group_3">
<path id="Vector_13" fill-rule="evenodd" clip-rule="evenodd" d="M12.2329 0V23.5521L17.5625 25.2438V5.4881C17.5625 4.56453 17.975 3.94462 18.6423 4.15866C19.5111 4.40085 19.6807 5.25332 19.6807 6.17837V14.0669C23.0032 15.6711 25.6169 14.0661 25.6169 9.83265C25.6169 5.59919 24.0875 3.55801 19.574 2.0123C17.7995 1.41313 14.4992 0.419199 12.2329 0Z" fill="white"/>
<path id="Vector_14" fill-rule="evenodd" clip-rule="evenodd" d="M18.5712 21.7998L27.1433 18.7469C28.118 18.3988 28.2653 17.904 27.4758 17.6463C26.6863 17.3863 25.2576 17.4626 24.2852 17.81L18.5719 19.823V16.6198L18.9045 16.5072C18.9045 16.5072 20.5539 15.9258 22.8721 15.6681C25.1932 15.4125 28.0343 15.7036 30.2673 16.5479C32.7795 17.3434 33.0632 18.5128 32.424 19.3179C31.7841 20.1244 30.2199 20.6992 30.2199 20.6992L18.5712 24.8845V21.799V21.7998Z" fill="white"/>
<path id="Vector_15" fill-rule="evenodd" clip-rule="evenodd" d="M2.45575 21.4769C-0.124617 20.7489 -0.554184 19.2365 0.620461 18.3648C1.70993 17.5575 3.5593 16.9524 3.5593 16.9524L11.1974 14.2372V17.3331L5.70195 19.2995C4.72727 19.6498 4.57989 20.1431 5.3694 20.4001C6.15892 20.6578 7.58908 20.586 8.56301 20.2371L11.1982 19.2795V22.0494C11.0301 22.0806 10.8449 22.1094 10.6716 22.1391C8.03494 22.5679 5.22646 22.3909 2.45649 21.4777L2.45575 21.4769Z" fill="white"/>
</g>
</g>
</g>
</svg>
