<svg width="17" height="17" viewBox="0 0 17 17" fill="none" xmlns="http://www.w3.org/2000/svg">
<g id="shopping-cart-03" clip-path="url(#clip0_279_7950)">
<path id="Icon" d="M3.54185 9.9165H12.8463C13.5637 9.9165 13.9224 9.9165 14.208 9.78275C14.4596 9.66492 14.6709 9.47574 14.8158 9.23874C14.9803 8.96969 15.0199 8.61317 15.0991 7.90015L15.5135 4.17075C15.5377 3.95296 15.5498 3.84407 15.5148 3.75978C15.484 3.68576 15.4291 3.62436 15.3589 3.58562C15.279 3.5415 15.1694 3.5415 14.9503 3.5415H3.18768M1.41675 1.4165H2.30106C2.4885 1.4165 2.58222 1.4165 2.65554 1.45215C2.72009 1.48353 2.77359 1.53379 2.80893 1.59625C2.84908 1.66721 2.85493 1.76075 2.86662 1.94782L3.50854 12.2185C3.52023 12.4056 3.52608 12.4991 3.56623 12.5701C3.60158 12.6326 3.65507 12.6828 3.71962 12.7142C3.79294 12.7498 3.88666 12.7498 4.0741 12.7498H13.4584M5.31258 15.229H5.31966M11.6876 15.229H11.6947M5.66675 15.229C5.66675 15.4246 5.50818 15.5832 5.31258 15.5832C5.11698 15.5832 4.95841 15.4246 4.95841 15.229C4.95841 15.0334 5.11698 14.8748 5.31258 14.8748C5.50818 14.8748 5.66675 15.0334 5.66675 15.229ZM12.0417 15.229C12.0417 15.4246 11.8832 15.5832 11.6876 15.5832C11.492 15.5832 11.3334 15.4246 11.3334 15.229C11.3334 15.0334 11.492 14.8748 11.6876 14.8748C11.8832 14.8748 12.0417 15.0334 12.0417 15.229Z" stroke="white" stroke-width="1.41667" stroke-linecap="round" stroke-linejoin="round"/>
</g>
<defs>
<clipPath id="clip0_279_7950">
<rect width="17" height="17" fill="white"/>
</clipPath>
</defs>
</svg>
