<svg width="15" height="13" viewBox="0 0 15 13" fill="none" xmlns="http://www.w3.org/2000/svg">
<path id="Star 3" d="M7.31112 0.542564C7.37343 0.36357 7.62657 0.36357 7.68888 0.542563L9.13712 4.70264C9.1651 4.78302 9.24089 4.83688 9.326 4.83688H13.9816C14.1787 4.83688 14.257 5.09181 14.0939 5.20241L10.3517 7.74003C10.2767 7.79087 10.2453 7.88576 10.275 7.97131L11.7099 12.0931C11.7732 12.2749 11.5682 12.4324 11.4088 12.3243L7.61225 9.74988C7.54447 9.70392 7.45553 9.70392 7.38775 9.74988L3.59119 12.3243C3.43181 12.4324 3.22675 12.2749 3.29006 12.0931L4.72496 7.97131C4.75475 7.88576 4.7233 7.79087 4.64833 7.74003L0.906122 5.20241C0.743017 5.09181 0.821302 4.83688 1.01837 4.83688H5.674C5.75911 4.83688 5.8349 4.78302 5.86288 4.70264L7.31112 0.542564Z" fill="white"/>
</svg>
