<svg width="69" height="20" viewBox="0 0 69 20" fill="none" xmlns="http://www.w3.org/2000/svg">
<g id="Xbox">
<path id="Vector" fill-rule="evenodd" clip-rule="evenodd" d="M17.1171 18.8786H13.977L8.5777 11.4114L3.14005 18.8786H0L6.96938 9.26697L0.574399 0.421216H3.71445L8.5777 7.12254L13.4409 0.421216H16.581L10.1477 9.26697L17.1171 18.8786ZM33.43 13.6324C33.43 15.2407 32.8939 16.5427 31.8217 17.4617C30.7495 18.3808 29.2178 18.8786 27.2265 18.8786H18.6105V10.6455H14.4749L16.1981 8.27134H18.6105V0.421216H26.8819C28.7583 0.421216 30.1751 0.880737 31.1707 1.76148C32.1664 2.64223 32.6642 3.82932 32.6642 5.24617C32.6642 7.00766 31.86 8.38622 30.2517 9.26697C31.2856 9.6499 32.0515 10.2626 32.5876 10.9902C33.162 11.7177 33.43 12.6368 33.43 13.6324ZM26.6904 8.30964C27.7626 8.30964 28.5668 8.07988 29.1029 7.58207C29.639 7.12255 29.9071 6.39497 29.9071 5.43764C29.9071 4.63348 29.639 3.9825 29.0646 3.52298C28.5285 3.06346 27.7243 2.8337 26.6904 2.8337H21.4059V8.30964H26.6904ZM30.5963 13.5558C30.5963 12.5985 30.29 11.8326 29.7156 11.3731C29.1412 10.8753 28.2604 10.6455 27.1116 10.6455H21.4059V16.4278H27.0734C28.1839 16.4278 29.0646 16.1598 29.6773 15.7002C30.29 15.2024 30.5963 14.4749 30.5963 13.5558ZM52.4235 9.6499C52.4235 11.0668 52.232 12.407 51.8108 13.5558C51.3896 14.7046 50.7769 15.7385 49.9727 16.6193C49.1303 17.5 48.173 18.1893 47.1007 18.6105C46.0285 19.0701 44.8031 19.2615 43.4246 19.2615C42.046 19.2615 40.8206 19.0318 39.7484 18.6105C38.6762 18.151 37.7189 17.5 36.8764 16.6193C36.034 15.7385 35.4213 14.7046 35.0001 13.5558C34.5788 12.407 34.3874 11.0668 34.3874 9.6499C34.3874 8.23305 34.5788 6.89279 35.0001 5.74399C35.4213 4.59519 36.034 3.52298 36.8764 2.64223C37.6806 1.76149 38.6379 1.1105 39.7484 0.650979C40.8206 0.229753 42.0843 0 43.4246 0C44.7648 0 45.9902 0.229753 47.1007 0.650979C48.173 1.07221 49.1686 1.76149 49.9727 2.64223C50.7769 3.52298 51.4279 4.59519 51.8108 5.74399C52.1938 6.89279 52.4235 8.19476 52.4235 9.6499ZM37.2977 9.6499C37.2977 11.8326 37.8721 13.5558 38.9826 14.8195C40.0931 16.0832 41.5482 16.7342 43.4246 16.7342C45.301 16.7342 46.7561 16.0832 47.8666 14.8195C48.9771 13.5558 49.5132 11.8326 49.5132 9.6499C49.5132 7.46719 48.9771 5.70569 47.8666 4.44201C46.7561 3.17833 45.2627 2.52735 43.4246 2.52735C41.5865 2.52735 40.0931 3.17833 38.9826 4.44201C37.8721 5.74398 37.2977 7.46719 37.2977 9.6499ZM61.3076 9.26697L67.7408 0.421216H64.6008L59.7375 7.12254L54.8743 0.421216H51.7342L58.1675 9.26697L51.1981 18.8786H54.3382L59.7375 11.4114L65.1752 18.8786H68.3152L61.3076 9.26697Z" fill="white"/>
</g>
</svg>
